<svg width="25" height="25" viewBox="0 0 25 25" fill="none" xmlns="http://www.w3.org/2000/svg">
<path d="M22.9168 7.86454C22.9168 8.55204 22.3543 9.11454 21.6668 9.11454H3.3335C2.646 9.11454 2.0835 8.55204 2.0835 7.86454V7.85413C2.0835 5.46871 4.01058 3.54163 6.396 3.54163H18.5939C20.9793 3.54163 22.9168 5.47913 22.9168 7.86454Z" fill="url(#paint0_linear_585_585)"/>
<path d="M2.0835 11.9271V17.1459C2.0835 19.5313 4.01058 21.4584 6.396 21.4584H18.5939C20.9793 21.4584 22.9168 19.5209 22.9168 17.1355V11.9271C22.9168 11.2396 22.3543 10.6771 21.6668 10.6771H3.3335C2.646 10.6771 2.0835 11.2396 2.0835 11.9271ZM8.3335 17.9688H6.25016C5.82308 17.9688 5.46891 17.6146 5.46891 17.1875C5.46891 16.7605 5.82308 16.4063 6.25016 16.4063H8.3335C8.76058 16.4063 9.11475 16.7605 9.11475 17.1875C9.11475 17.6146 8.76058 17.9688 8.3335 17.9688ZM15.1043 17.9688H10.9377C10.5106 17.9688 10.1564 17.6146 10.1564 17.1875C10.1564 16.7605 10.5106 16.4063 10.9377 16.4063H15.1043C15.5314 16.4063 15.8856 16.7605 15.8856 17.1875C15.8856 17.6146 15.5314 17.9688 15.1043 17.9688Z" fill="url(#paint1_linear_585_585)"/>
<defs>
<linearGradient id="paint0_linear_585_585" x1="2.0835" y1="3.54163" x2="4.86591" y2="13.9432" gradientUnits="userSpaceOnUse">
<stop stop-color="#A855F7"/>
<stop offset="1" stop-color="#F472B6"/>
</linearGradient>
<linearGradient id="paint1_linear_585_585" x1="2.0835" y1="10.6771" x2="10.885" y2="27.6848" gradientUnits="userSpaceOnUse">
<stop stop-color="#A855F7"/>
<stop offset="1" stop-color="#F472B6"/>
</linearGradient>
</defs>
</svg>
